<svg width="14" height="12" viewBox="0 0 14 12" fill="none" xmlns="http://www.w3.org/2000/svg">
<path d="M11.8487 1.6478C10.9343 1.20123 9.9668 0.884027 8.97192 0.70459C8.83636 0.964107 8.71339 1.23058 8.60349 1.50299C7.54684 1.3346 6.47181 1.3346 5.41515 1.50299C5.30431 1.23037 5.18009 0.963884 5.04299 0.70459C4.04687 0.883891 3.07825 1.20168 2.163 1.64947C0.342347 4.52072 -0.151296 7.32068 0.0956581 10.0807C1.30305 11.022 2.47349 11.5934 3.62399 11.9671C3.90999 11.5568 4.16279 11.1223 4.37975 10.6683C3.96655 10.5042 3.56826 10.3019 3.18963 10.0638C3.28958 9.98665 3.38714 9.90592 3.48204 9.82297C5.77641 10.9429 8.26934 10.9429 10.5366 9.82297C10.632 9.9062 10.7296 9.98665 10.829 10.0638C10.4498 10.3025 10.0508 10.5052 9.63675 10.6694C9.85356 11.1235 10.1064 11.558 10.3925 11.9682C11.5441 11.5943 12.7156 11.0225 13.923 10.0801C14.2114 6.88153 13.4272 4.10737 11.8487 1.6478ZM4.69235 8.38374C4.00359 8.38374 3.43872 7.71295 3.43872 6.89568C3.43872 6.07841 3.99137 5.40624 4.69235 5.40624C5.39334 5.40624 5.95797 6.0773 5.946 6.89568C5.94707 7.71295 5.39308 8.38374 4.69235 8.38374ZM9.32521 8.38374C8.63618 8.38374 8.07156 7.71295 8.07156 6.89568C8.07156 6.07841 8.62422 5.40624 9.32521 5.40624C10.0262 5.40624 10.5908 6.0773 10.5786 6.89568C10.5786 7.71295 10.0259 8.38374 9.32521 8.38374Z" fill="white"/>
</svg>
