<svg width="24" height="21" viewBox="0 0 24 21" fill="none" xmlns="http://www.w3.org/2000/svg">
<path fill-rule="evenodd" clip-rule="evenodd" d="M4.51346 0.876654L0.331646 9.56033C0.315732 9.59262 0.31069 9.62911 0.317255 9.66444C0.32382 9.69978 0.341648 9.73211 0.368133 9.75671L11.6622 20.4557C11.6943 20.4861 11.737 20.5031 11.7815 20.5031C11.8259 20.5031 11.8686 20.4861 11.9007 20.4557L23.1948 9.75738C23.2213 9.73278 23.2391 9.70045 23.2457 9.66511C23.2523 9.62978 23.2472 9.59329 23.2313 9.56099L19.0495 0.877322C19.036 0.848159 19.0143 0.823454 18.987 0.80616C18.9596 0.788865 18.9279 0.779714 18.8954 0.779798H4.66887C4.63627 0.779397 4.60426 0.788329 4.57668 0.805515C4.54911 0.822701 4.52715 0.847407 4.51346 0.876654Z" fill="white"/>
<path fill-rule="evenodd" clip-rule="evenodd" d="M12.9987 10.4357C12.9179 10.4417 12.5005 10.4661 11.5693 10.4661C10.8287 10.4661 10.3029 10.4443 10.1184 10.4357C7.25625 10.3123 5.11992 9.82372 5.11992 9.23878C5.11992 8.65383 7.25625 8.16594 10.1184 8.0405V9.94916C10.3056 9.96237 10.8415 9.9934 11.5821 9.9934C12.4708 9.9934 12.9159 9.95709 12.996 9.94982V8.04182C15.8521 8.1666 17.9837 8.65515 17.9837 9.23878C17.9837 9.8224 15.8528 10.311 12.996 10.4351L12.9987 10.4357ZM12.9987 7.84441V6.13645H16.9845V3.53192H6.13254V6.13645H10.1177V7.84375C6.87854 7.98966 4.4426 8.61884 4.4426 9.3728C4.4426 10.1268 6.87854 10.7553 10.1177 10.9018V16.375H12.998V10.8999C16.2298 10.754 18.6617 10.1254 18.6617 9.37214C18.6617 8.61884 16.2325 7.99098 12.9987 7.84441Z" fill="black"/>
</svg>
